<svg width="137" height="62" viewBox="0 0 137 62" fill="none" xmlns="http://www.w3.org/2000/svg">
<path d="M13.3464 11.41C12.7654 10.896 12.2067 10.5217 11.6704 10.2871C11.1341 10.0524 10.5698 9.9351 9.97766 9.9351C8.79331 9.9351 7.84917 10.3262 7.14526 11.1083C6.45253 11.8904 6.10616 12.9519 6.10616 14.2926C6.10616 15.5887 6.46929 16.6223 7.19554 17.3932C7.9218 18.1642 8.89945 18.5496 10.1285 18.5496C10.7319 18.5496 11.2961 18.4323 11.8212 18.1977C12.3576 17.9519 12.8659 17.5776 13.3464 17.0748V22.2535C12.6313 22.6558 11.9162 22.9519 11.2011 23.1418C10.486 23.3318 9.74861 23.4267 8.98884 23.4267C6.38549 23.4267 4.27375 22.5943 2.65364 20.9295C1.0447 19.2535 0.240234 17.0524 0.240234 14.3262C0.240234 11.6781 1.06146 9.51611 2.70392 7.84013C4.35755 6.15298 6.47487 5.30941 9.05588 5.30941C9.91621 5.30941 10.6927 5.3932 11.3855 5.5608C12.0782 5.7284 12.7319 5.99656 13.3464 6.36527V11.41Z" fill="white"/>
<path d="M29.0335 14.3597C29.0335 13.0971 28.7151 12.1027 28.0782 11.3764C27.4414 10.6502 26.581 10.2871 25.4972 10.2871C24.4022 10.2871 23.5363 10.6502 22.8995 11.3764C22.2738 12.1027 21.9609 13.0971 21.9609 14.3597C21.9609 15.6223 22.2738 16.6167 22.8995 17.3429C23.5252 18.058 24.3911 18.4156 25.4972 18.4156C26.5922 18.4156 27.4525 18.058 28.0782 17.3429C28.7151 16.6167 29.0335 15.6223 29.0335 14.3597ZM34.9665 14.3597C34.9665 15.5776 34.7263 16.734 34.2458 17.829C33.7766 18.9239 33.0894 19.9072 32.1844 20.7787C31.2682 21.6502 30.2402 22.3094 29.1006 22.7563C27.9721 23.2033 26.771 23.4267 25.4972 23.4267C24.2011 23.4267 22.9833 23.2033 21.8436 22.7563C20.7151 22.3094 19.7039 21.6502 18.8101 20.7787C17.9162 19.9295 17.2346 18.9575 16.7654 17.8625C16.2961 16.7563 16.0615 15.5887 16.0615 14.3597C16.0615 13.1195 16.2905 11.9519 16.7486 10.8569C17.2179 9.76192 17.905 8.77868 18.8101 7.90717C19.6927 7.04684 20.6983 6.39879 21.8268 5.96304C22.9665 5.52728 24.19 5.30941 25.4972 5.30941C26.8045 5.30941 28.0224 5.52728 29.1509 5.96304C30.2793 6.39879 31.2905 7.04684 32.1844 7.90717C33.1006 8.78985 33.7933 9.77868 34.2626 10.8737C34.7319 11.9686 34.9665 13.1306 34.9665 14.3597Z" fill="white"/>
<path d="M38.4022 22.7731V5.84572H43.8659V9.28147C44.6592 7.90717 45.5754 6.90158 46.6145 6.26471C47.6536 5.62784 48.8995 5.30941 50.352 5.30941C51.4469 5.30941 52.419 5.48818 53.2682 5.84572C54.1285 6.19209 54.8268 6.69488 55.3631 7.3541C55.8101 7.92393 56.1285 8.61667 56.3184 9.43231C56.5084 10.248 56.6034 11.4658 56.6034 13.0859V22.7731H50.6201V13.7061C50.6201 12.3541 50.3967 11.3709 49.9497 10.7563C49.514 10.1418 48.8101 9.83455 47.838 9.83455C46.5978 9.83455 45.6927 10.2926 45.1229 11.2088C44.5531 12.125 44.2682 13.6111 44.2682 15.6669V22.7731H38.4022Z" fill="white"/>
<path d="M61.7486 22.7731V10.0692H59.2179V5.84572H61.7486V0.801025H67.6313V5.84572H70.162V10.0692H67.6313V22.7731H61.7486Z" fill="white"/>
<path d="M85.8659 14.2926C85.8659 12.9742 85.514 11.9295 84.8101 11.1586C84.1062 10.3876 83.1453 10.0021 81.9274 10.0021C80.7095 10.0021 79.7486 10.3876 79.0447 11.1586C78.352 11.9183 78.0056 12.963 78.0056 14.2926C78.0056 15.6111 78.3576 16.6502 79.0615 17.41C79.7654 18.1697 80.7207 18.5496 81.9274 18.5496C83.1453 18.5496 84.1062 18.1697 84.8101 17.41C85.514 16.6502 85.8659 15.6111 85.8659 14.2926ZM91.1117 5.84572V22.7731H85.6313V20.0245C84.8492 21.1977 83.9665 22.058 82.9833 22.6055C82.0112 23.153 80.8659 23.4267 79.5475 23.4267C77.2905 23.4267 75.486 22.6055 74.1341 20.963C72.7821 19.3094 72.1062 17.0971 72.1062 14.3262C72.1062 11.5664 72.8101 9.37645 74.2179 7.75633C75.6369 6.12505 77.5419 5.30941 79.933 5.30941C81.2067 5.30941 82.3017 5.58315 83.2179 6.13063C84.1453 6.66695 84.9386 7.49935 85.5978 8.62784V5.84572H91.1117Z" fill="white"/>
<path d="M107.771 11.41C107.19 10.896 106.631 10.5217 106.095 10.2871C105.559 10.0524 104.994 9.9351 104.402 9.9351C103.218 9.9351 102.274 10.3262 101.57 11.1083C100.877 11.8904 100.531 12.9519 100.531 14.2926C100.531 15.5887 100.894 16.6223 101.62 17.3932C102.346 18.1642 103.324 18.5496 104.553 18.5496C105.156 18.5496 105.721 18.4323 106.246 18.1977C106.782 17.9519 107.291 17.5776 107.771 17.0748V22.2535C107.056 22.6558 106.341 22.9519 105.626 23.1418C104.911 23.3318 104.173 23.4267 103.413 23.4267C100.81 23.4267 98.6983 22.5943 97.0782 20.9295C95.4693 19.2535 94.6648 17.0524 94.6648 14.3262C94.6648 11.6781 95.486 9.51611 97.1285 7.84013C98.7821 6.15298 100.899 5.30941 103.48 5.30941C104.341 5.30941 105.117 5.3932 105.81 5.5608C106.503 5.7284 107.156 5.99656 107.771 6.36527V11.41Z" fill="white"/>
<path d="M112.363 22.7731V10.0692H109.832V5.84572H112.363V0.801025H118.246V5.84572H120.777V10.0692H118.246V22.7731H112.363Z" fill="white"/>
<path d="M122 21.3653L123.24 16.8066C124.112 17.5664 125.067 18.153 126.106 18.5664C127.156 18.9686 128.212 19.1697 129.274 19.1697C130.022 19.1697 130.592 19.0524 130.983 18.8178C131.374 18.572 131.57 18.22 131.57 17.7619C131.57 17.0133 130.782 16.4547 129.207 16.0859C128.693 15.963 128.279 15.8569 127.966 15.7675C126.179 15.2759 124.877 14.6334 124.061 13.8401C123.257 13.0357 122.855 11.9966 122.855 10.7228C122.855 9.08036 123.469 7.76751 124.698 6.78427C125.939 5.80103 127.615 5.30941 129.726 5.30941C130.81 5.30941 131.911 5.4379 133.028 5.69488C134.156 5.94069 135.307 6.32617 136.48 6.85131L135.24 10.9575C134.447 10.4211 133.642 10.0133 132.827 9.73399C132.011 9.45466 131.196 9.31499 130.38 9.31499C129.698 9.31499 129.184 9.42114 128.838 9.63343C128.492 9.84572 128.318 10.153 128.318 10.5552C128.318 11.1586 129.101 11.6669 130.665 12.0804C131.022 12.1809 131.291 12.2535 131.469 12.2982C133.536 12.8904 134.972 13.5887 135.777 14.3932C136.592 15.1865 137 16.2647 137 17.6278C137 19.3597 136.335 20.7619 135.006 21.8345C133.676 22.896 131.916 23.4267 129.726 23.4267C128.24 23.4267 126.86 23.2535 125.587 22.9072C124.313 22.572 123.117 22.058 122 21.3653Z" fill="white"/>
<path d="M5.03353 46.0994C5.03353 47.7418 5.44135 49.0547 6.25699 50.0379C7.08381 51.0211 8.16761 51.5128 9.50839 51.5128C10.8827 51.5128 11.9441 51.0547 12.6927 50.1385C13.4525 49.2223 13.8324 47.9206 13.8324 46.2334C13.8324 44.5575 13.4358 43.2502 12.6425 42.3116C11.8603 41.3619 10.7821 40.8871 9.40783 40.8871C8.03353 40.8871 6.96091 41.3452 6.18996 42.2614C5.41901 43.1776 5.03353 44.4569 5.03353 46.0994ZM1.51398 61.5686V38.2055H5.15085V40.8033C5.57543 39.7977 6.25141 39.0211 7.17878 38.4737C8.11733 37.9262 9.23465 37.6524 10.5307 37.6524C12.6425 37.6524 14.352 38.4345 15.6592 39.9988C16.9777 41.5519 17.6369 43.5966 17.6369 46.1329C17.6369 48.8033 16.9888 50.9094 15.6927 52.4513C14.4078 53.982 12.6425 54.7474 10.3967 54.7474C9.27934 54.7474 8.28493 54.5239 7.41342 54.077C6.55308 53.6301 5.79889 52.9485 5.15085 52.0323V61.5686H1.51398Z" fill="white"/>
<path d="M33.9777 46.1999C33.9777 44.7251 33.5028 43.4792 32.5531 42.4625C31.6034 41.4346 30.4414 40.9206 29.0671 40.9206C27.7039 40.9206 26.5419 41.4346 25.581 42.4625C24.6313 43.4792 24.1564 44.7251 24.1564 46.1999C24.1564 47.6748 24.6313 48.9262 25.581 49.9541C26.5419 50.9709 27.7039 51.4792 29.0671 51.4792C30.4302 51.4792 31.5866 50.9709 32.5363 49.9541C33.4972 48.9262 33.9777 47.6748 33.9777 46.1999ZM20.3184 46.1664C20.3184 45.0044 20.5363 43.9094 20.9721 42.8815C21.419 41.8424 22.0559 40.9206 22.8827 40.1161C23.6983 39.3228 24.6369 38.7139 25.6983 38.2893C26.7598 37.8647 27.8715 37.6524 29.0335 37.6524C30.2291 37.6524 31.352 37.8647 32.4022 38.2893C33.4637 38.7139 34.4134 39.3396 35.2514 40.1664C36.0894 40.982 36.7263 41.9038 37.162 42.9318C37.5978 43.9597 37.8157 45.0379 37.8157 46.1664C37.8157 47.3396 37.5978 48.4401 37.162 49.4681C36.7374 50.496 36.1117 51.4066 35.2849 52.1999C34.4134 53.0379 33.4469 53.6692 32.3855 54.0938C31.324 54.5295 30.2067 54.7474 29.0335 54.7474C27.8827 54.7474 26.7765 54.5295 25.7151 54.0938C24.6536 53.6692 23.7095 53.0491 22.8827 52.2334C22.0447 51.4066 21.4078 50.4792 20.9721 49.4513C20.5363 48.4234 20.3184 47.3284 20.3184 46.1664Z" fill="white"/>
<path d="M45.3073 40.7362C45.6983 39.6859 46.2123 38.9094 46.8492 38.4066C47.4972 37.9038 48.2961 37.6524 49.2458 37.6524C49.7598 37.6524 50.2626 37.7139 50.7542 37.8368C51.257 37.9597 51.7486 38.1385 52.2291 38.3731L50.9218 41.4569C50.609 41.2334 50.2682 41.0714 49.8995 40.9709C49.5419 40.8591 49.1397 40.8033 48.6927 40.8033C47.486 40.8033 46.6201 41.2893 46.095 42.2614C45.5698 43.2223 45.3073 44.8424 45.3073 47.1217V54.0938H41.6704V38.172H45.3073V40.7362Z" fill="white"/>
<path d="M55.162 54.0938V41.3899H52.3799V38.2055H55.162V32.1887H58.7989V38.2055H61.581V41.3899H58.7989V54.0938H55.162Z" fill="white"/>
<path d="M79.6816 54.0938H76.0447V52.0323C75.3967 52.9485 74.6369 53.6301 73.7654 54.077C72.905 54.5239 71.9162 54.7474 70.7989 54.7474C68.5531 54.7474 66.7821 53.982 65.486 52.4513C64.2011 50.9094 63.5587 48.8033 63.5587 46.1329C63.5587 43.5966 64.2179 41.5519 65.5363 39.9988C66.8548 38.4345 68.5754 37.6524 70.6983 37.6524C71.9944 37.6524 73.1006 37.9262 74.0168 38.4737C74.9441 39.01 75.6201 39.7865 76.0447 40.8033V38.2055H79.6816V54.0938ZM76.1453 46.0994C76.1453 44.4569 75.7598 43.1776 74.9888 42.2614C74.2291 41.3452 73.162 40.8871 71.7877 40.8871C70.4134 40.8871 69.3296 41.3619 68.5363 42.3116C67.7542 43.2502 67.3631 44.5575 67.3631 46.2334C67.3631 47.9206 67.743 49.2223 68.5028 50.1385C69.2626 51.0547 70.3352 51.5128 71.7207 51.5128C73.0279 51.5128 74.0894 51.0156 74.905 50.0211C75.7319 49.0267 76.1453 47.7195 76.1453 46.0994Z" fill="white"/>
<path d="M84.8771 54.0938V28.1161H88.514V54.0938H84.8771Z" fill="white"/>
</svg>
