<svg width="320" height="143" viewBox="0 0 320 143" fill="none" xmlns="http://www.w3.org/2000/svg">
<path d="M31.4375 25.5156C30.0833 24.3177 28.7812 23.4453 27.5312 22.8984C26.2812 22.3516 24.9661 22.0781 23.5859 22.0781C20.8255 22.0781 18.625 22.9896 16.9844 24.8125C15.3698 26.6354 14.5625 29.1094 14.5625 32.2344C14.5625 35.2552 15.4089 37.6641 17.1016 39.4609C18.7943 41.2578 21.0729 42.1562 23.9375 42.1562C25.3438 42.1562 26.6589 41.8828 27.8828 41.3359C29.1328 40.763 30.3177 39.8906 31.4375 38.7188V50.7891C29.7708 51.7266 28.1042 52.4167 26.4375 52.8594C24.7708 53.3021 23.0521 53.5234 21.2812 53.5234C15.2135 53.5234 10.2917 51.5833 6.51562 47.7031C2.76562 43.7969 0.890625 38.6667 0.890625 32.3125C0.890625 26.1406 2.80469 21.1016 6.63281 17.1953C10.487 13.263 15.4219 11.2969 21.4375 11.2969C23.4427 11.2969 25.2526 11.4922 26.8672 11.8828C28.4818 12.2734 30.0052 12.8984 31.4375 13.7578V25.5156Z" fill="#083F46"/>
<path d="M68 32.3906C68 29.4479 67.2578 27.1302 65.7734 25.4375C64.2891 23.7448 62.2839 22.8984 59.7578 22.8984C57.2057 22.8984 55.1875 23.7448 53.7031 25.4375C52.2448 27.1302 51.5156 29.4479 51.5156 32.3906C51.5156 35.3333 52.2448 37.651 53.7031 39.3438C55.1615 41.0104 57.1797 41.8438 59.7578 41.8438C62.3099 41.8438 64.3151 41.0104 65.7734 39.3438C67.2578 37.651 68 35.3333 68 32.3906ZM81.8281 32.3906C81.8281 35.2292 81.2682 37.9245 80.1484 40.4766C79.0547 43.0286 77.4531 45.3203 75.3438 47.3516C73.2083 49.3828 70.8125 50.9193 68.1562 51.9609C65.526 53.0026 62.7266 53.5234 59.7578 53.5234C56.737 53.5234 53.8984 53.0026 51.2422 51.9609C48.612 50.9193 46.2552 49.3828 44.1719 47.3516C42.0885 45.3724 40.5 43.1068 39.4062 40.5547C38.3125 37.9766 37.7656 35.2552 37.7656 32.3906C37.7656 29.5 38.2995 26.7786 39.3672 24.2266C40.4609 21.6745 42.0625 19.3828 44.1719 17.3516C46.2292 15.3464 48.5729 13.8359 51.2031 12.8203C53.8594 11.8047 56.7109 11.2969 59.7578 11.2969C62.8047 11.2969 65.6432 11.8047 68.2734 12.8203C70.9036 13.8359 73.2604 15.3464 75.3438 17.3516C77.4792 19.4089 79.0938 21.7135 80.1875 24.2656C81.2812 26.8177 81.8281 29.526 81.8281 32.3906Z" fill="#083F46"/>
<path d="M89.8359 52V12.5469H102.57V20.5547C104.419 17.3516 106.555 15.0078 108.977 13.5234C111.398 12.0391 114.302 11.2969 117.688 11.2969C120.24 11.2969 122.505 11.7135 124.484 12.5469C126.49 13.3542 128.117 14.526 129.367 16.0625C130.409 17.3906 131.151 19.0052 131.594 20.9062C132.036 22.8073 132.258 25.6458 132.258 29.4219V52H118.312V30.8672C118.312 27.7161 117.792 25.4245 116.75 23.9922C115.734 22.5599 114.094 21.8438 111.828 21.8438C108.938 21.8438 106.828 22.9115 105.5 25.0469C104.172 27.1823 103.508 30.6458 103.508 35.4375V52H89.8359Z" fill="#083F46"/>
<path d="M144.25 52V22.3906H138.352V12.5469H144.25V0.789062H157.961V12.5469H163.859V22.3906H157.961V52H144.25Z" fill="#083F46"/>
<path d="M200.461 32.2344C200.461 29.1615 199.641 26.7266 198 24.9297C196.359 23.1328 194.12 22.2344 191.281 22.2344C188.443 22.2344 186.203 23.1328 184.562 24.9297C182.948 26.7005 182.141 29.1354 182.141 32.2344C182.141 35.3073 182.961 37.7292 184.602 39.5C186.242 41.2708 188.469 42.1562 191.281 42.1562C194.12 42.1562 196.359 41.2708 198 39.5C199.641 37.7292 200.461 35.3073 200.461 32.2344ZM212.688 12.5469V52H199.914V45.5938C198.091 48.3281 196.034 50.3333 193.742 51.6094C191.477 52.8854 188.807 53.5234 185.734 53.5234C180.474 53.5234 176.268 51.6094 173.117 47.7812C169.966 43.9271 168.391 38.7708 168.391 32.3125C168.391 25.8802 170.031 20.776 173.312 17C176.62 13.1979 181.06 11.2969 186.633 11.2969C189.602 11.2969 192.154 11.9349 194.289 13.2109C196.451 14.4609 198.299 16.401 199.836 19.0312V12.5469H212.688Z" fill="#083F46"/>
<path d="M251.516 25.5156C250.161 24.3177 248.859 23.4453 247.609 22.8984C246.359 22.3516 245.044 22.0781 243.664 22.0781C240.904 22.0781 238.703 22.9896 237.062 24.8125C235.448 26.6354 234.641 29.1094 234.641 32.2344C234.641 35.2552 235.487 37.6641 237.18 39.4609C238.872 41.2578 241.151 42.1562 244.016 42.1562C245.422 42.1562 246.737 41.8828 247.961 41.3359C249.211 40.763 250.396 39.8906 251.516 38.7188V50.7891C249.849 51.7266 248.182 52.4167 246.516 52.8594C244.849 53.3021 243.13 53.5234 241.359 53.5234C235.292 53.5234 230.37 51.5833 226.594 47.7031C222.844 43.7969 220.969 38.6667 220.969 32.3125C220.969 26.1406 222.883 21.1016 226.711 17.1953C230.565 13.263 235.5 11.2969 241.516 11.2969C243.521 11.2969 245.331 11.4922 246.945 11.8828C248.56 12.2734 250.083 12.8984 251.516 13.7578V25.5156Z" fill="#083F46"/>
<path d="M262.219 52V22.3906H256.32V12.5469H262.219V0.789062H275.93V12.5469H281.828V22.3906H275.93V52H262.219Z" fill="#083F46"/>
<path d="M284.68 48.7188L287.57 38.0938C289.602 39.8646 291.828 41.2318 294.25 42.1953C296.698 43.1328 299.159 43.6016 301.633 43.6016C303.378 43.6016 304.706 43.3281 305.617 42.7812C306.529 42.2083 306.984 41.388 306.984 40.3203C306.984 38.5755 305.148 37.2734 301.477 36.4141C300.279 36.1276 299.315 35.8802 298.586 35.6719C294.419 34.526 291.385 33.0286 289.484 31.1797C287.609 29.3047 286.672 26.8828 286.672 23.9141C286.672 20.0859 288.104 17.026 290.969 14.7344C293.859 12.4427 297.766 11.2969 302.688 11.2969C305.214 11.2969 307.779 11.5964 310.383 12.1953C313.013 12.7682 315.695 13.6667 318.43 14.8906L315.539 24.4609C313.69 23.2109 311.815 22.2604 309.914 21.6094C308.013 20.9583 306.112 20.6328 304.211 20.6328C302.622 20.6328 301.424 20.8802 300.617 21.375C299.81 21.8698 299.406 22.5859 299.406 23.5234C299.406 24.9297 301.229 26.1146 304.875 27.0781C305.708 27.3125 306.333 27.4818 306.75 27.5859C311.568 28.9661 314.914 30.5938 316.789 32.4688C318.69 34.3177 319.641 36.8307 319.641 40.0078C319.641 44.0443 318.091 47.3125 314.992 49.8125C311.893 52.2865 307.792 53.5234 302.688 53.5234C299.224 53.5234 296.008 53.1198 293.039 52.3125C290.07 51.5312 287.284 50.3333 284.68 48.7188Z" fill="#083F46"/>
<path d="M12.0625 106.367C12.0625 110.195 13.013 113.255 14.9141 115.547C16.8411 117.839 19.3672 118.984 22.4922 118.984C25.6953 118.984 28.1693 117.917 29.9141 115.781C31.6849 113.646 32.5703 110.612 32.5703 106.68C32.5703 102.773 31.6458 99.7266 29.7969 97.5391C27.974 95.3255 25.4609 94.2188 22.2578 94.2188C19.0547 94.2188 16.5547 95.2865 14.7578 97.4219C12.9609 99.5573 12.0625 102.539 12.0625 106.367ZM3.85938 142.422V87.9688H12.3359V94.0234C13.3255 91.6797 14.901 89.8698 17.0625 88.5938C19.25 87.3177 21.8542 86.6797 24.875 86.6797C29.7969 86.6797 33.7812 88.5026 36.8281 92.1484C39.901 95.7682 41.4375 100.534 41.4375 106.445C41.4375 112.669 39.9271 117.578 36.9062 121.172C33.9115 124.74 29.7969 126.523 24.5625 126.523C21.9583 126.523 19.6406 126.003 17.6094 124.961C15.6042 123.919 13.8464 122.331 12.3359 120.195V142.422H3.85938Z" fill="#083F46"/>
<path d="M79.5234 106.602C79.5234 103.164 78.4167 100.26 76.2031 97.8906C73.9896 95.4948 71.2812 94.2969 68.0781 94.2969C64.901 94.2969 62.1927 95.4948 59.9531 97.8906C57.7396 100.26 56.6328 103.164 56.6328 106.602C56.6328 110.039 57.7396 112.956 59.9531 115.352C62.1927 117.721 64.901 118.906 68.0781 118.906C71.2552 118.906 73.9505 117.721 76.1641 115.352C78.4036 112.956 79.5234 110.039 79.5234 106.602ZM47.6875 106.523C47.6875 103.815 48.1953 101.263 49.2109 98.8672C50.2526 96.4453 51.737 94.2969 53.6641 92.4219C55.5651 90.5729 57.7526 89.1536 60.2266 88.1641C62.7005 87.1745 65.2917 86.6797 68 86.6797C70.7865 86.6797 73.4036 87.1745 75.8516 88.1641C78.3255 89.1536 80.5391 90.612 82.4922 92.5391C84.4453 94.4401 85.9297 96.5885 86.9453 98.9844C87.9609 101.38 88.4688 103.893 88.4688 106.523C88.4688 109.258 87.9609 111.823 86.9453 114.219C85.9557 116.615 84.4974 118.737 82.5703 120.586C80.5391 122.539 78.2865 124.01 75.8125 125C73.3385 126.016 70.7344 126.523 68 126.523C65.3177 126.523 62.7396 126.016 60.2656 125C57.7917 124.01 55.5911 122.565 53.6641 120.664C51.7109 118.737 50.2266 116.576 49.2109 114.18C48.1953 111.784 47.6875 109.232 47.6875 106.523Z" fill="#083F46"/>
<path d="M105.93 93.8672C106.841 91.4193 108.039 89.6094 109.523 88.4375C111.034 87.2656 112.896 86.6797 115.109 86.6797C116.307 86.6797 117.479 86.8229 118.625 87.1094C119.797 87.3958 120.943 87.8125 122.062 88.3594L119.016 95.5469C118.286 95.026 117.492 94.6484 116.633 94.4141C115.799 94.1536 114.862 94.0234 113.82 94.0234C111.008 94.0234 108.99 95.1562 107.766 97.4219C106.542 99.6615 105.93 103.438 105.93 108.75V125H97.4531V87.8906H105.93V93.8672Z" fill="#083F46"/>
<path d="M128.898 125V95.3906H122.414V87.9688H128.898V73.9453H137.375V87.9688H143.859V95.3906H137.375V125H128.898Z" fill="#083F46"/>
<path d="M186.047 125H177.57V120.195C176.06 122.331 174.289 123.919 172.258 124.961C170.253 126.003 167.948 126.523 165.344 126.523C160.109 126.523 155.982 124.74 152.961 121.172C149.966 117.578 148.469 112.669 148.469 106.445C148.469 100.534 150.005 95.7682 153.078 92.1484C156.151 88.5026 160.161 86.6797 165.109 86.6797C168.13 86.6797 170.708 87.3177 172.844 88.5938C175.005 89.8438 176.581 91.6536 177.57 94.0234V87.9688H186.047V125ZM177.805 106.367C177.805 102.539 176.906 99.5573 175.109 97.4219C173.339 95.2865 170.852 94.2188 167.648 94.2188C164.445 94.2188 161.919 95.3255 160.07 97.5391C158.247 99.7266 157.336 102.773 157.336 106.68C157.336 110.612 158.221 113.646 159.992 115.781C161.763 117.917 164.263 118.984 167.492 118.984C170.539 118.984 173.013 117.826 174.914 115.508C176.841 113.19 177.805 110.143 177.805 106.367Z" fill="#083F46"/>
<path d="M198.156 125V64.4531H206.633V125H198.156Z" fill="#083F46"/>
</svg>
