<svg width="43" height="43" viewBox="0 0 43 43" fill="none" xmlns="http://www.w3.org/2000/svg">
<g id="bx:log-out-circle">
<path id="Vector" d="M3.58334 21.5L12.5417 28.6667V23.2917H28.6667V19.7084H12.5417V14.3334L3.58334 21.5Z" fill="white"/>
<path id="Vector_2" d="M23.2935 5.37323C21.1749 5.36736 19.0762 5.78193 17.1189 6.59293C15.1617 7.40394 13.3848 8.59525 11.8913 10.0979L14.4247 12.6313C16.7933 10.2627 19.943 8.95656 23.2935 8.95656C26.6439 8.95656 29.7936 10.2627 32.1622 12.6313C34.5308 14.9999 35.8369 18.1496 35.8369 21.5C35.8369 24.8504 34.5308 28.0002 32.1622 30.3688C29.7936 32.7374 26.6439 34.0435 23.2935 34.0435C19.943 34.0435 16.7933 32.7374 14.4247 30.3688L11.8913 32.9022C14.9353 35.948 18.9845 37.6268 23.2935 37.6268C27.6024 37.6268 31.6516 35.948 34.6956 32.9022C37.7415 29.8581 39.4203 25.809 39.4203 21.5C39.4203 17.1911 37.7415 13.1419 34.6956 10.0979C33.2021 8.59525 31.4252 7.40394 29.468 6.59293C27.5108 5.78193 25.4121 5.36736 23.2935 5.37323Z" fill="white"/>
</g>
</svg>
