<svg width="23" height="24" viewBox="0 0 23 24" fill="none" xmlns="http://www.w3.org/2000/svg">
<g id="material-symbols:edit-rounded">
<path id="Vector" d="M18.4958 8.925L14.4229 4.725L15.7646 3.325C16.1319 2.94167 16.5833 2.75 17.1187 2.75C17.6535 2.75 18.1045 2.94167 18.4719 3.325L19.8135 4.725C20.1809 5.10833 20.3726 5.571 20.3885 6.113C20.4045 6.65433 20.2288 7.11667 19.8615 7.5L18.4958 8.925ZM3.83333 21C3.56181 21 3.33436 20.904 3.151 20.712C2.967 20.5207 2.875 20.2833 2.875 20V17.175C2.875 17.0417 2.89896 16.9127 2.94688 16.788C2.99479 16.6627 3.06667 16.55 3.1625 16.45L13.0333 6.15L17.1063 10.4L7.23542 20.7C7.13958 20.8 7.03193 20.875 6.91246 20.925C6.79235 20.975 6.6684 21 6.54062 21H3.83333Z" fill="#083F46"/>
</g>
</svg>
